<svg width="15" height="28" viewBox="0 0 15 28" fill="none" xmlns="http://www.w3.org/2000/svg">
<path fill-rule="evenodd" clip-rule="evenodd" d="M11.9415 5.03401C12.7726 5.00657 13.6036 5.02743 14.4368 5.02633H14.7801V0.685109C14.3362 0.640105 13.8715 0.575344 13.4068 0.553391C12.5539 0.514973 11.6999 0.472164 10.8459 0.49302C9.54251 0.520461 8.3091 0.83878 7.23205 1.61482C5.99645 2.50721 5.31851 3.75964 5.06046 5.23927C4.9533 5.84957 4.92596 6.48182 4.90956 7.10199C4.88551 8.07671 4.9041 9.05032 4.90628 10.025V10.3895H0.767578V15.2389H4.88223V27.4283H9.90991V15.2576H14.0103C14.2203 13.6451 14.4259 12.048 14.6413 10.3851C14.3121 10.3851 14.0158 10.3851 13.7195 10.3851C12.5539 10.3895 9.87601 10.3851 9.87601 10.3851C9.87601 10.3851 9.88804 7.98121 9.91647 6.93844C9.95692 5.50929 10.8011 5.07353 11.9415 5.03291V5.03401Z" fill="white"/>
</svg>
