<svg width="15" height="28" viewBox="0 0 15 28" fill="none" xmlns="http://www.w3.org/2000/svg">
<path fill-rule="evenodd" clip-rule="evenodd" d="M11.9415 5.47688C12.7726 5.44944 13.6036 5.4703 14.4368 5.4692H14.7801V1.12798C14.3362 1.08298 13.8715 1.01821 13.4068 0.996262C12.5539 0.957844 11.6999 0.915035 10.8459 0.935891C9.54251 0.963332 8.3091 1.28165 7.23205 2.05769C5.99645 2.95008 5.31851 4.20251 5.06046 5.68214C4.9533 6.29244 4.92596 6.92469 4.90956 7.54486C4.88551 8.51958 4.9041 9.49319 4.90628 10.4679V10.8323H0.767578V15.6818H4.88223V27.8712H9.90991V15.7004H14.0103C14.2203 14.088 14.4259 12.4909 14.6413 10.8279C14.3121 10.8279 14.0158 10.8279 13.7195 10.8279C12.5539 10.8323 9.87601 10.8279 9.87601 10.8279C9.87601 10.8279 9.88804 8.42408 9.91647 7.38131C9.95692 5.95217 10.8011 5.5164 11.9415 5.47578V5.47688Z" fill="#F9C13F"/>
</svg>
