<svg width="26" height="25" viewBox="0 0 26 25" fill="none" xmlns="http://www.w3.org/2000/svg">
<g clip-path="url(#clip0_769_848)">
<path d="M25.2307 6.57131C25.0659 4.95263 24.4456 3.5211 23.243 2.37396C21.978 1.16656 20.4309 0.632643 18.7358 0.542776C15.8456 0.384186 8.98506 0.284803 6.57564 0.678106C3.82382 1.12639 2.01886 2.73343 1.25799 5.45484C0.671482 7.54717 0.787727 17.1926 1.13012 19.2606C1.59615 22.0888 3.2669 23.9031 6.06945 24.6252C8.00861 25.1263 17.5385 25.0618 19.6774 24.7151C22.5064 24.2573 24.3272 22.5952 25.0627 19.7967C25.6249 17.6483 25.4284 8.50822 25.2318 6.57025L25.2307 6.57131ZM22.9682 18.861C22.6395 21.0093 21.214 22.3404 19.055 22.5762C17.0725 22.794 8.2168 22.9135 6.37696 22.3986C4.61745 21.907 3.61141 20.6964 3.31868 18.9244C3.0397 17.2317 2.97101 8.77571 3.31551 6.5121C3.63994 4.38171 5.06446 3.05273 7.21075 2.81273C9.38875 2.5685 17.2257 2.54207 19.3118 2.86136C21.4549 3.19017 22.7822 4.6196 23.0179 6.78276C23.2377 8.80108 23.3 16.6904 22.9671 18.8599L22.9682 18.861ZM13.1403 6.39157C9.65928 6.38946 6.8356 9.2113 6.83349 12.695C6.83137 16.1776 9.65188 19.0026 13.1339 19.0048C16.6149 19.0069 19.4386 16.185 19.4407 12.7013C19.4428 9.2187 16.6223 6.39369 13.1403 6.39157ZM13.0969 16.7718C10.846 16.7517 9.03685 14.9089 9.05798 12.6569C9.07806 10.405 10.92 8.59492 13.1709 8.615C15.4218 8.63509 17.231 10.4779 17.2109 12.7299C17.1909 14.9819 15.3489 16.7919 13.098 16.7718H13.0969ZM21.1654 6.15263C21.1632 6.96778 20.5006 7.62752 19.6859 7.6254C18.8711 7.62329 18.2117 6.96038 18.2138 6.14523C18.2159 5.33008 18.8785 4.67034 19.6933 4.67246C20.508 4.67457 21.1675 5.33748 21.1654 6.15263Z" fill="white"/>
</g>
<defs>
<clipPath id="clip0_769_848">
<rect width="24.5846" height="24.5846" fill="white" transform="translate(0.845703 0.403137)"/>
</clipPath>
</defs>
</svg>
