<svg width="26" height="26" viewBox="0 0 26 26" fill="none" xmlns="http://www.w3.org/2000/svg">
<g clip-path="url(#clip0_750_1282)">
<path d="M25.2307 7.01424C25.0659 5.39557 24.4456 3.96403 23.243 2.81689C21.978 1.60949 20.4309 1.07558 18.7358 0.985708C15.8456 0.827118 8.98506 0.727735 6.57564 1.12104C3.82382 1.56932 2.01886 3.17636 1.25799 5.89777C0.671482 7.9901 0.787727 17.6355 1.13012 19.7036C1.59615 22.5317 3.2669 24.346 6.06945 25.0681C8.00861 25.5693 17.5385 25.5048 19.6774 25.158C22.5064 24.7002 24.3272 23.0382 25.0627 20.2396C25.6249 18.0912 25.4284 8.95115 25.2318 7.01318L25.2307 7.01424ZM22.9682 19.3039C22.6395 21.4523 21.214 22.7834 19.055 23.0191C17.0725 23.2369 8.2168 23.3564 6.37696 22.8415C4.61745 22.3499 3.61141 21.1393 3.31868 19.3673C3.0397 17.6747 2.97101 9.21864 3.31551 6.95503C3.63994 4.82464 5.06446 3.49566 7.21075 3.25566C9.38875 3.01143 17.2257 2.985 19.3118 3.30429C21.4549 3.6331 22.7822 5.06253 23.0179 7.22569C23.2377 9.24402 23.3 17.1333 22.9671 19.3028L22.9682 19.3039ZM13.1403 6.83451C9.65928 6.83239 6.8356 9.65424 6.83349 13.1379C6.83137 16.6206 9.65188 19.4456 13.1339 19.4477C16.6149 19.4498 19.4386 16.628 19.4407 13.1443C19.4428 9.66164 16.6223 6.83662 13.1403 6.83451ZM13.0969 17.2147C10.846 17.1947 9.03685 15.3518 9.05798 13.0999C9.07806 10.8479 10.92 9.03785 13.1709 9.05794C15.4218 9.07802 17.231 10.9208 17.2109 13.1728C17.1909 15.4248 15.3489 17.2348 13.098 17.2147H13.0969ZM21.1654 6.59556C21.1632 7.41072 20.5006 8.07045 19.6859 8.06834C18.8711 8.06622 18.2117 7.40332 18.2138 6.58816C18.2159 5.77301 18.8785 5.11328 19.6933 5.11539C20.508 5.11751 21.1675 5.78041 21.1654 6.59556Z" fill="#F9C13F"/>
</g>
<defs>
<clipPath id="clip0_750_1282">
<rect width="24.5846" height="24.5846" fill="white" transform="translate(0.845703 0.846191)"/>
</clipPath>
</defs>
</svg>
