<svg width="23" height="23" viewBox="0 0 23 23" fill="none" xmlns="http://www.w3.org/2000/svg">
<path d="M1.00694 7.36439H5.60706V22.1992H1.00694V7.36439ZM3.30756 -0.00744629C4.77825 -0.00744629 5.97119 1.19009 5.97119 2.66424C5.97119 4.13839 4.77934 5.34032 3.30756 5.34032C1.83578 5.34032 0.640625 4.14058 0.640625 2.66424C0.640625 1.1879 1.8325 -0.00744629 3.30756 -0.00744629Z" fill="white"/>
<path d="M8.49023 7.36442H12.8968V9.39398H12.9569C13.5715 8.22608 15.0695 6.9978 17.3067 6.9978C21.9571 6.9978 22.8155 10.0679 22.8155 14.0634V22.1992H18.2252V14.9876C18.2252 13.2654 18.1913 11.0536 15.8382 11.0536C13.4851 11.0536 13.0827 12.9273 13.0827 14.8614V22.1992H8.4913V7.36442H8.49023Z" fill="white"/>
</svg>
