<svg width="23" height="23" viewBox="0 0 23 23" fill="none" xmlns="http://www.w3.org/2000/svg">
<path d="M1.00694 7.80739H5.60706V22.6422H1.00694V7.80739ZM3.30756 0.435547C4.77825 0.435547 5.97119 1.63309 5.97119 3.10723C5.97119 4.58138 4.77934 5.78331 3.30756 5.78331C1.83578 5.78331 0.640625 4.58358 0.640625 3.10723C0.640625 1.63089 1.8325 0.435547 3.30756 0.435547Z" fill="#F9C13F"/>
<path d="M8.49023 7.80729H12.8968V9.83685H12.9569C13.5715 8.66895 15.0695 7.44067 17.3067 7.44067C21.9571 7.44067 22.8155 10.5108 22.8155 14.5063V22.6421H18.2252V15.4305C18.2252 13.7083 18.1913 11.4965 15.8382 11.4965C13.4851 11.4965 13.0827 13.3702 13.0827 15.3043V22.6421H8.4913V7.80729H8.49023Z" fill="#F9C13F"/>
</svg>
