<svg width="312" height="228" viewBox="0 0 312 228" fill="none" xmlns="http://www.w3.org/2000/svg">
<g clip-path="url(#clip0_624_1506)">
<path d="M62.582 162.673L88.1262 146.671L88.3267 211.785L62.746 228L62.582 162.673Z" fill="#D2D2D2"/>
<path d="M0.894531 162.676L26.6118 146.677L88.1263 146.671L62.5821 162.673L0.894531 162.676Z" fill="#BEBEBE"/>
<path d="M62.5821 162.673L62.7461 228L0.967419 227.991L0.894531 162.676L62.5821 162.673Z" fill="#F2F2F2"/>
<path d="M73.8682 92.5891L102.112 83.2988L88.1178 146.659L59.8008 156.128L73.8682 92.5891Z" fill="#D2D2D2"/>
<path d="M14.1367 77.4712L42.5084 68.2266L102.113 83.2989L73.8684 92.5891L14.1367 77.4712Z" fill="#BEBEBE"/>
<path d="M73.8689 92.5894L59.8015 156.128L0 140.934L14.1372 77.4714L73.8689 92.5894Z" fill="#F2F2F2"/>
<path d="M93.3154 28.0101L122.307 22.3223L102.095 83.3138L73.0312 89.1445L93.3154 28.0101Z" fill="#D2D2D2"/>
<path d="M35.5234 5.63312L64.5966 0L122.306 22.3227L93.3145 28.0106L35.5234 5.63312Z" fill="#BEBEBE"/>
<path d="M93.3134 28.0105L73.0293 89.1449L15.2109 66.6519L35.5224 5.63306L93.3134 28.0105Z" fill="#F2F2F2"/>
<path d="M149.836 106.607C157.747 101.87 162.549 93.8082 162.549 83.9768C162.549 67.2234 150.033 55.6106 132.774 55.6106H104.002L98.0703 65.7156V135.751H120.131V111.23H128.127L141.117 135.751H165.741L149.839 106.604L149.836 106.607ZM130.205 92.6348H120.131V75.2338H130.205C136.37 75.2338 139.923 78.9 139.923 83.91C139.923 88.9199 136.37 92.6348 130.205 92.6348Z" fill="#F9F9F9"/>
<path d="M220.157 116.605V135.757H167.957V55.6133H219.188V74.6984H189.918V86.4966H216.215V104.609H189.918V116.605H220.157Z" fill="#F9F9F9"/>
<path d="M128.128 197.108H120.132V221.628H98.0742V141.485H132.778C150.037 141.485 162.55 153.094 162.55 169.848C162.55 179.682 157.751 187.741 149.84 192.481L165.739 221.625H141.121L128.131 197.104L128.128 197.108ZM120.132 178.509H130.206C136.371 178.509 139.921 174.791 139.921 169.781C139.921 164.771 136.371 161.108 130.206 161.108H120.132V178.509Z" fill="#F9F9F9"/>
<path d="M168.293 141.484H190.642V221.628H168.293V141.484Z" fill="#F9F9F9"/>
<path d="M193.112 195.748H215.865C215.865 201.475 220.277 204.26 225.307 204.26C229.926 204.26 234.342 201.798 234.342 197.42C234.342 192.392 228.11 190.933 220.487 189.084C208.913 186.205 194.141 182.655 194.141 164.409C194.141 148.625 205.724 139.584 224.605 139.584C243.486 139.584 254.808 149.446 254.808 165.752H232.684C232.684 160.685 228.912 158.307 224.338 158.307C220.408 158.307 216.633 160.01 216.633 163.749C216.633 168.3 222.668 169.808 230.205 171.705C241.989 174.748 257.399 178.688 257.399 196.985C257.399 215.283 243.96 223.576 225.368 223.576C205.773 223.576 193.105 213.207 193.105 195.736L193.112 195.748Z" fill="#F9F9F9"/>
<path d="M312.001 202.476V221.628H259.801V141.484H311.032V160.569H281.761V172.368H308.059V190.48H281.761V202.476H312.001Z" fill="#F9F9F9"/>
</g>
<defs>
<clipPath id="clip0_624_1506">
<rect width="312" height="228" fill="white"/>
</clipPath>
</defs>
</svg>
