<svg width="587" height="429" viewBox="0 0 587 429" fill="none" xmlns="http://www.w3.org/2000/svg">
<path d="M118.344 305.621L166.339 275.502L166.706 397.69L118.711 428.176L118.344 305.621Z" fill="#E8911D"/>
<path d="M2.51172 305.621L50.7519 275.502H166.332L118.337 305.621H2.51172Z" fill="#F4A92E"/>
<path d="M118.337 305.621L118.704 428.177H2.63416L2.51172 305.621H118.337Z" fill="#F9C13F"/>
<path d="M139.51 174.004L192.647 156.619L166.323 275.501L113.186 293.254L139.51 174.004Z" fill="#E8911D"/>
<path d="M27.3555 145.723L80.6156 128.338L192.645 156.62L139.508 174.005L27.3555 145.723Z" fill="#F4A92E"/>
<path d="M139.502 174.006L113.178 293.255L0.78125 264.729L27.3501 145.723L139.502 174.006Z" fill="#F9C13F"/>
<path d="M176.109 52.7965L230.594 42.1448L192.638 156.62L138.031 167.516L176.109 52.7965Z" fill="#E8911D"/>
<path d="M67.5098 10.8019L122.117 0.272614L230.596 42.1448L176.111 52.7965L67.5098 10.8019Z" fill="#F4A92E"/>
<path d="M176.116 52.7964L138.039 167.516L29.3145 125.399L67.5148 10.8018L176.116 52.7964Z" fill="#F9C13F"/>
<path d="M282.26 200.328C297.075 191.39 306.135 176.331 306.135 157.844C306.135 126.378 282.627 104.585 250.181 104.585H196.187L185.045 123.562V255.056H226.429V209.021H241.488L265.853 255.056H312.135L282.26 200.328ZM245.406 174.127H226.429V141.438H245.406C257.038 141.438 263.649 148.294 263.649 157.721C263.649 167.149 256.915 174.127 245.406 174.127Z" fill="black"/>
<path d="M414.357 219.06V255.056H316.285V104.708H412.521V140.581H357.546V162.741H406.889V196.777H357.546V219.305H414.357V219.06Z" fill="black"/>
<path d="M241.488 370.143H226.429V416.177H185.045V265.829H250.181C282.627 265.829 306.135 287.623 306.135 319.088C306.135 337.575 297.075 352.635 282.26 361.572L312.135 416.3H265.853L241.488 370.265V370.143ZM226.429 335.249H245.406C257.038 335.249 263.649 328.27 263.649 318.843C263.649 309.416 257.038 302.559 245.406 302.559H226.429V335.249Z" fill="black"/>
<path d="M316.906 265.829H358.902V416.177H316.906V265.829Z" fill="black"/>
<path d="M363.562 367.694H406.293C406.293 378.468 414.619 383.611 424.046 383.611C432.739 383.611 441.065 378.958 441.065 370.755C441.065 361.328 429.311 358.634 414.986 355.084C393.192 349.697 365.522 342.963 365.522 308.804C365.522 279.175 387.315 262.157 422.7 262.157C458.084 262.157 479.388 280.644 479.388 311.253H437.882C437.882 301.703 430.78 297.295 422.21 297.295C414.864 297.295 407.762 300.478 407.762 307.457C407.762 316.027 419.149 318.843 433.229 322.394C455.39 328.148 484.285 335.494 484.285 369.898C484.285 404.302 459.063 419.851 424.169 419.851C387.315 419.851 363.562 400.384 363.562 367.572V367.694Z" fill="black"/>
<path d="M586.865 380.304V416.3H488.793V265.952H585.028V301.825H530.054V323.985H579.396V358.022H530.054V380.549H586.865V380.304Z" fill="black"/>
</svg>
